<svg xmlns="http://www.w3.org/2000/svg" width="166.156" height="166.188"><path d="M105.813 16.625C98.416 34.76 93.954 46.623 85.719 64.219c5.05 5.352 11.247 11.585 21.312 18.625C96.211 78.39 88.83 73.92 83.312 69.28 72.773 91.274 56.26 122.602 22.75 182.813c26.338-15.206 46.754-24.58 65.781-28.157a48.2 48.2 0 0 1-1.25-11.281l.031-.844c.418-16.874 9.196-29.85 19.594-28.969s18.48 15.283 18.063 32.157c-.079 3.175-.437 6.23-1.063 9.062 18.82 3.682 39.019 13.032 65 28.031-5.123-9.431-9.695-17.933-14.062-26.03-6.879-5.332-14.053-12.27-28.688-19.782 10.06 2.614 17.261 5.63 22.875 9-44.398-82.662-47.993-93.646-63.219-129.375" style="fill:#1793d1;fill-opacity:1;fill-rule:evenodd;stroke:none" transform="translate(-22.75 -16.625)"/></svg>