<svg xmlns="http://www.w3.org/2000/svg" version="1.1" xmlns:xlink="http://www.w3.org/1999/xlink" width="1000" height="1000"><style>
    #light-icon {
      display: inline;
    }
    #dark-icon {
      display: none;
    }

    @media (prefers-color-scheme: dark) {
      #light-icon {
        display: none;
      }
      #dark-icon {
        display: inline;
      }
    }
  </style><g id="light-icon"><svg xmlns="http://www.w3.org/2000/svg" version="1.1" xmlns:xlink="http://www.w3.org/1999/xlink" width="1000" height="1000"><g clip-path="url(#SvgjsClipPath1240)"><rect width="1000" height="1000" fill="#ffffff"></rect><g transform="matrix(4.266320810259648,0,0,4.266320810259648,43.315955186566214,0)"><svg xmlns="http://www.w3.org/2000/svg" version="1.1" xmlns:xlink="http://www.w3.org/1999/xlink" width="214.088" height="234.394"><svg xmlns="http://www.w3.org/2000/svg" width="214.088" height="234.394" viewBox="0 0 56.644 62.017"><path d="M118.451 105.701c-9.824.255-19.135 5.096-24.85 13.568l1.602 1.206a28.99 28.99 0 0 1 32.522-11.516 28.99 28.99 0 0 1 20.521 27.732 28.99 28.99 0 0 1-20.521 27.735 28.99 28.99 0 0 1-32.522-11.518l-1.601 1.221c7.62 11.296 21.677 16.193 34.707 12.209s21.937-16.021 21.937-29.647-8.907-25.66-21.937-29.644a31 31 0 0 0-9.858-1.346" style="baseline-shift:baseline;display:inline;overflow:visible;opacity:1;vector-effect:none;fill:#44db00;stop-color:#000;stop-opacity:1" transform="translate(-93.602 -105.69)"></path><path d="M107.281 134.476h11.89c4.632 0 7.552-1.085 9.597-3.546 2.42-2.837 3.713-6.968 3.713-11.682 0-4.673-1.293-8.803-3.713-11.682-2.045-2.462-4.923-3.505-9.596-3.505h-11.89zm6.259-5.215v-19.985h5.632c4.714 0 7.05 3.296 7.05 10.013 0 6.676-2.336 9.972-7.05 9.972z" aria-label="D" style="font-weight:600;font-size:41.7211px;font-family:FreeSans;-inkscape-font-specification:&quot;FreeSans Semi-Bold&quot;;text-align:justify;letter-spacing:2.41831px;fill:#dbd400;stroke-width:18.2802" transform="matrix(.87249 0 0 1.14615 -93.602 -105.69)"></path><path d="M123.179 147.474h1.884c-.24-2.005-1.87-3.274-4.223-3.274-2.806 0-4.717 2.071-4.717 5.105 0 2.953 1.924 5.105 4.557 5.105 1.31 0 2.191-.468 2.94-1.564l.24 1.283h1.203v-5.265h-3.902v1.67h2.218c-.173 1.844-1.978 2.165-2.472 2.165-1.617 0-2.78-1.416-2.78-3.421 0-2.098 1.03-3.368 2.727-3.368 1.39 0 2.044.735 2.325 1.564m8.82-1.417h2.846v-1.67h-7.805v1.67h2.954v8.072h2.004z" aria-label="GT" style="font-weight:600;font-size:13.3638px;font-family:FreeSans;-inkscape-font-specification:&quot;FreeSans Semi-Bold&quot;;text-align:justify;letter-spacing:.774617px;fill:#dbd400;stroke-width:5.85538" transform="translate(-93.602 -105.69)"></path></svg></svg></g></g><defs><clipPath id="SvgjsClipPath1240"><rect width="1000" height="1000" x="0" y="0" rx="0" ry="0"></rect></clipPath></defs></svg></g><g id="dark-icon"><svg xmlns="http://www.w3.org/2000/svg" version="1.1" xmlns:xlink="http://www.w3.org/1999/xlink" width="1000" height="1000"><g clip-path="url(#SvgjsClipPath1241)"><rect width="1000" height="1000" fill="#364153"></rect><g transform="matrix(4.266320810259648,0,0,4.266320810259648,43.315955186566214,0)"><svg xmlns="http://www.w3.org/2000/svg" version="1.1" xmlns:xlink="http://www.w3.org/1999/xlink" width="214.088" height="234.394"><svg xmlns="http://www.w3.org/2000/svg" width="214.088" height="234.394" viewBox="0 0 56.644 62.017"><path d="M118.451 105.701c-9.824.255-19.135 5.096-24.85 13.568l1.602 1.206a28.99 28.99 0 0 1 32.522-11.516 28.99 28.99 0 0 1 20.521 27.732 28.99 28.99 0 0 1-20.521 27.735 28.99 28.99 0 0 1-32.522-11.518l-1.601 1.221c7.62 11.296 21.677 16.193 34.707 12.209s21.937-16.021 21.937-29.647-8.907-25.66-21.937-29.644a31 31 0 0 0-9.858-1.346" style="baseline-shift:baseline;display:inline;overflow:visible;opacity:1;vector-effect:none;fill:#44db00;stop-color:#000;stop-opacity:1" transform="translate(-93.602 -105.69)"></path><path d="M107.281 134.476h11.89c4.632 0 7.552-1.085 9.597-3.546 2.42-2.837 3.713-6.968 3.713-11.682 0-4.673-1.293-8.803-3.713-11.682-2.045-2.462-4.923-3.505-9.596-3.505h-11.89zm6.259-5.215v-19.985h5.632c4.714 0 7.05 3.296 7.05 10.013 0 6.676-2.336 9.972-7.05 9.972z" aria-label="D" style="font-weight:600;font-size:41.7211px;font-family:FreeSans;-inkscape-font-specification:&quot;FreeSans Semi-Bold&quot;;text-align:justify;letter-spacing:2.41831px;fill:#dbd400;stroke-width:18.2802" transform="matrix(.87249 0 0 1.14615 -93.602 -105.69)"></path><path d="M123.179 147.474h1.884c-.24-2.005-1.87-3.274-4.223-3.274-2.806 0-4.717 2.071-4.717 5.105 0 2.953 1.924 5.105 4.557 5.105 1.31 0 2.191-.468 2.94-1.564l.24 1.283h1.203v-5.265h-3.902v1.67h2.218c-.173 1.844-1.978 2.165-2.472 2.165-1.617 0-2.78-1.416-2.78-3.421 0-2.098 1.03-3.368 2.727-3.368 1.39 0 2.044.735 2.325 1.564m8.82-1.417h2.846v-1.67h-7.805v1.67h2.954v8.072h2.004z" aria-label="GT" style="font-weight:600;font-size:13.3638px;font-family:FreeSans;-inkscape-font-specification:&quot;FreeSans Semi-Bold&quot;;text-align:justify;letter-spacing:.774617px;fill:#dbd400;stroke-width:5.85538" transform="translate(-93.602 -105.69)"></path></svg></svg></g></g><defs><clipPath id="SvgjsClipPath1241"><rect width="1000" height="1000" x="0" y="0" rx="350" ry="350"></rect></clipPath></defs></svg></g></svg>